<svg xmlns="http://www.w3.org/2000/svg" width="55" height="55" fill="none" viewBox="0 0 55 55"><circle cx="27.5" cy="27.5" r="27.5" fill="#236C44"/><path fill="#fff" d="M21.32 38.696C19.848 38.696 18.4613 38.3227 17.16 37.576C15.752 36.7013 14.8133 35.6133 14.344 34.312C14.1733 33.8427 14.0453 33.416 13.96 33.032C13.8747 32.6267 13.832 32.2853 13.832 32.008C13.832 31.3253 14.0773 30.984 14.568 30.984C14.7173 30.984 14.8027 31.0587 14.824 31.208C14.9307 31.6133 15.0267 31.9547 15.112 32.232C15.1973 32.5093 15.272 32.7333 15.336 32.904C15.4427 33.2027 15.5813 33.48 15.752 33.736C15.9227 33.992 16.104 34.2373 16.296 34.472C17.2987 35.6027 18.6427 36.168 20.328 36.168C20.6267 36.168 20.9787 36.104 21.384 35.976C21.832 35.848 22.088 35.784 22.152 35.784C22.216 35.8053 22.248 35.8373 22.248 35.88C22.248 36.264 21.4373 36.456 19.816 36.456C17.512 36.456 15.9973 35.6667 15.272 34.088C16.552 36.9467 18.5573 38.376 21.288 38.376C21.352 38.376 21.4267 38.376 21.512 38.376C21.5973 38.376 21.6827 38.3653 21.768 38.344C21.8107 38.3227 21.8853 38.2907 21.992 38.248C22.12 38.2053 22.2693 38.1627 22.44 38.12C23.4213 37.8213 24.584 36.6373 25.928 34.568C26.4187 33.8213 26.8667 33.064 27.272 32.296C27.6987 31.528 28.072 30.7493 28.392 29.96C28.9253 28.7653 29.3413 27.592 29.64 26.44C29.4267 25.48 28.8933 25 28.04 25C27.8907 25 27.7947 25.0107 27.752 25.032C27.752 24.712 27.88 24.4133 28.136 24.136C28.392 23.8373 28.6907 23.688 29.032 23.688C29.608 23.688 29.9173 24.1147 29.96 24.968C30.152 24.0933 30.2907 23.2293 30.376 22.376C30.4613 21.5227 30.504 20.7013 30.504 19.912C30.504 19.7413 30.504 19.56 30.504 19.368C30.504 19.176 30.4933 18.9947 30.472 18.824C29.7253 18.6533 28.7653 18.44 27.592 18.184C26.4187 17.928 25.064 17.6293 23.528 17.288C22.5253 17.096 21.608 16.9467 20.776 16.84C19.9653 16.7333 19.2293 16.68 18.568 16.68C16.9253 16.68 15.688 17.0107 14.856 17.672C14.1947 18.2053 13.864 18.8027 13.864 19.464C13.864 20.616 14.6747 21.192 16.296 21.192C16.36 21.192 16.392 21.2027 16.392 21.224C16.392 21.3093 16.1253 21.3627 15.592 21.384C15.5493 21.384 15.5067 21.4053 15.464 21.448C15.4213 21.4693 15.368 21.48 15.304 21.48C15.1547 21.48 14.9947 21.4373 14.824 21.352C14.0133 21.0747 13.608 20.5093 13.608 19.656C13.608 19.4213 13.64 19.176 13.704 18.92C13.7893 18.664 13.9173 18.4187 14.088 18.184C15.304 16.3707 17.2347 15.464 19.88 15.464C20.4133 15.464 20.9787 15.496 21.576 15.56C22.1947 15.6027 22.856 15.7093 23.56 15.88L30.344 17.48C30.152 16.0933 29.672 14.9307 28.904 13.992C28.7547 13.8427 28.68 13.704 28.68 13.576C28.68 13.4053 28.776 13.32 28.968 13.32C29.0747 13.32 29.2347 13.4053 29.448 13.576C30.2587 14.408 30.792 15.7627 31.048 17.64C32.2213 17.896 33.256 18.088 34.152 18.216L34.568 17.512C34.7387 17.2347 34.952 16.9893 35.208 16.776C35.464 16.5413 35.752 16.3173 36.072 16.104C36.776 15.6987 37.416 15.496 37.992 15.496C38.2907 15.496 38.632 15.592 39.016 15.784C39.4213 15.976 39.624 16.2213 39.624 16.52C39.624 16.7547 39.528 16.872 39.336 16.872C39.2933 16.872 39.112 16.712 38.792 16.392C38.5147 16.0507 38.1947 15.88 37.832 15.88C37.0853 15.88 36.424 16.4987 35.848 17.736L35.56 18.344C35.8373 18.3653 36.104 18.376 36.36 18.376C36.6373 18.376 36.8827 18.376 37.096 18.376C38.5893 18.376 39.5707 18.1307 40.04 17.64C40.424 17.192 40.616 16.6907 40.616 16.136C40.616 15.8373 40.5307 15.5707 40.36 15.336C40.1893 15.08 40.104 14.952 40.104 14.952C40.104 14.8453 40.168 14.792 40.296 14.792C40.68 14.792 40.872 15.24 40.872 16.136C40.872 18.2907 39.0693 19.368 35.464 19.368H35.208L32.552 27.656C31.4 31.0693 30.088 33.6293 28.616 35.336C26.6747 37.576 24.2427 38.696 21.32 38.696ZM22.632 38.28C24.9787 37.9387 26.8987 36.6053 28.392 34.28C28.8827 33.4907 29.3627 32.4773 29.832 31.24C30.3227 29.9813 30.8027 28.5093 31.272 26.824C31.8053 24.8613 32.264 23.2507 32.648 21.992C33.032 20.712 33.352 19.8053 33.608 19.272C33.224 19.2293 32.8293 19.1867 32.424 19.144C32.0187 19.1013 31.6027 19.0373 31.176 18.952V19.624C31.176 21.224 30.984 22.888 30.6 24.616C30.2373 26.3227 29.6933 28.0933 28.968 29.928C27.24 34.1733 25.128 36.9573 22.632 38.28ZM40.1793 37.128C39.5819 37.128 39.1659 36.904 38.9313 36.456C38.6966 36.008 38.5793 35.368 38.5793 34.536C38.5793 34.4293 38.5793 34.3227 38.5793 34.216C38.5793 34.088 38.5899 33.9707 38.6113 33.864C38.2913 34.4827 37.7686 35.0907 37.0433 35.688C36.2539 36.392 35.5606 36.744 34.9633 36.744C34.5793 36.744 34.2379 36.52 33.9393 36.072C33.7046 35.6453 33.5872 35.2187 33.5872 34.792C33.5872 34.0667 33.7686 33.2453 34.1313 32.328C34.5153 31.176 35.0059 30.6 35.6033 30.6C35.8166 30.6 35.9339 30.7387 35.9553 31.016C35.1233 32.4453 34.7073 33.5867 34.7073 34.44C34.7073 35.272 34.9633 35.688 35.4753 35.688C36.5633 35.688 37.7473 34.5147 39.0273 32.168C39.0699 32.04 39.1339 31.8907 39.2193 31.72C39.3259 31.528 39.4433 31.3253 39.5713 31.112C39.6353 30.92 39.9233 30.824 40.4353 30.824C40.6059 30.824 40.6913 30.888 40.6913 31.016L40.3393 32.008C40.1686 32.4773 40.0513 32.9253 39.9873 33.352C39.9233 33.7787 39.8913 34.1733 39.8913 34.536C39.8913 35.7093 40.1686 36.296 40.7233 36.296C41.1499 36.296 41.6726 36.0293 42.2913 35.496C42.9313 34.9627 43.5179 34.3333 44.0513 33.608C44.1153 33.544 44.1686 33.512 44.2113 33.512C44.2966 33.512 44.3393 33.5867 44.3393 33.736C44.3393 33.8853 44.2859 34.024 44.1793 34.152C43.3259 35.2827 42.5686 36.0613 41.9073 36.488C41.2673 36.9147 40.6913 37.128 40.1793 37.128Z"/></svg>